<?xml version="1.0" standalone="no"?>
<!DOCTYPE svg PUBLIC "-//W3C//DTD SVG 1.1//EN" "http://www.w3.org/Graphics/SVG/1.1/DTD/svg11.dtd" >
<!--
2013-9-30: Created.
-->
<svg>
<metadata>
Created by iconfont
</metadata>
<defs>

<font id="iconfont" horiz-adv-x="1024" >
  <font-face
    font-family="iconfont"
    font-weight="500"
    font-stretch="normal"
    units-per-em="1024"
    ascent="896"
    descent="-128"
  />
    <missing-glyph />
    
    <glyph glyph-name="bendiluyin" unicode="&#58933;" d="M511.999762 243.42606c130.500404 0 235.650867 105.138556 235.650867 235.650867V660.360564A235.186495 235.186495 0 0 1 511.999762 895.999524a235.162681 235.162681 0 0 1-235.650867-235.63896v-181.27173A235.174588 235.174588 0 0 1 511.999762 243.42606zM348.850442 660.360564c0 90.623958 72.513455 163.137412 163.14932 163.137412s163.149319-72.513455 163.149319-163.137412v-181.27173c0-90.635865-72.513455-163.149319-163.149319-163.14932a162.470622 162.470622 0 0 0-163.14932 163.14932V660.360564zM887.224145 417.446444c0 1.80986 1.80986 5.441486 1.80986 7.251345a36.36389 36.36389 0 0 1-36.256727 36.256728c-18.12241 0-34.434961-14.502691-36.244821-32.625101C791.146795 281.492647 664.26611 170.912605 511.999762 170.912605S232.852729 281.48074 207.467066 428.329416c-1.80986 18.12241-18.134317 32.625101-36.24482 32.625101a36.36389 36.36389 0 0 1-36.256727-36.256728v-5.429578c29.005382-170.388758 168.578898-302.722836 340.777516-319.035387v-170.06727H245.902769a29.076824 29.076824 0 1 1 0-58.153647h532.205892a29.076824 29.076824 0 1 1 0 58.153647H548.256489V100.220917c172.210525 16.312551 311.784041 148.646629 338.967656 317.225527z"  horiz-adv-x="1024" />

    
    <glyph glyph-name="chaxun" unicode="&#58934;" d="M1009.413953-52.664558L781.07386 173.306047a35.149395 35.149395 0 0 1-16.526883 9.454139c63.785674 76.371349 101.566512 173.222698 101.566511 278.718512 0 239.354047-193.690791 433.056744-433.044837 433.056744S0.011907 700.844651 0.011907 461.478698c0-239.354047 193.690791-433.044837 433.056744-433.044838 105.495814 0 201.561302 37.792744 277.146791 99.994791 2.357581-5.51293 5.51293-11.02586 10.24-15.741023l228.340093-225.970605a44.210605 44.210605 0 0 1 61.416186 0c17.312744 16.526884 16.526884 44.079628-0.797768 60.618419zM433.068651 107.174698c-196.060279 0-354.315907 158.255628-354.315907 354.304S237.020279 815.794605 433.068651 815.794605c196.048372 0 354.315907-158.267535 354.315907-354.315907 0-196.048372-158.267535-354.304-354.315907-354.304z m0 0"  horiz-adv-x="1024" />

    
    <glyph glyph-name="bendiwenjian" unicode="&#58935;" d="M963.762605 745.400558H470.373209l-43.591442 87.111442a60.070698 60.070698 0 0 1-53.879069 33.351442H60.237395C27.028837 865.875349 0 838.941767 0 805.816558v-750.996837c0-82.82493 60.02307-150.206512 143.062326-150.206512 5.084279 0 7.537116 0.261953 7.537116 0.738233v-3.226791h722.82493C956.416-97.875349 1024-30.493767 1024 52.319256V685.639442c0 33.149023-27.052651 59.761116-60.237395 59.761116z m0-693.081302c0-49.675907-40.531349-89.969116-90.35014-89.969116H269.050047c20.122791 30.124651 32.113116 57.558326 32.113116 92.469581V353.875349h662.599442v-301.556093zM240.937674 414.112744v-359.293023c0-49.711628-40.531349-90.112-90.350139-90.112s-90.362047 40.412279-90.362047 90.112V805.637953h312.67721l43.591442-87.111441a60.094512 60.094512 0 0 1 53.879069-33.351442h493.389396v-271.062326H240.937674z m0 0"  horiz-adv-x="1024" />

    
    <glyph glyph-name="guanbi" unicode="&#58936;" d="M583.465674 384.619163L1007.746977 808.900465c20.444279 20.444279 20.444279 51.116651 0 71.572837-20.444279 20.444279-51.116651 20.444279-71.56093 0L511.892837 456.180093 87.623442 880.461395c-20.444279 20.444279-51.116651 20.444279-71.572837 0-20.444279-20.456186-20.444279-51.116651 0-71.572837l424.281302-424.281302L16.050605-39.66214c-20.444279-20.444279-20.444279-51.116651 0-71.56093 10.228093-10.228093 20.456186-15.336186 35.780465-15.336186 15.336186 0 25.564279 5.108093 35.780465 15.336186l424.281302 424.281303 424.281303-424.281303c10.216186-10.228093 25.564279-15.336186 35.780465-15.336186 10.216186 0 25.564279 5.108093 35.780465 15.336186 20.444279 20.444279 20.444279 51.116651 0 71.56093L583.465674 384.619163z m0 0"  horiz-adv-x="1024" />

    
    <glyph glyph-name="jietu" unicode="&#58937;" d="M146.348651 895.535628h73.049302v-876.27014h-73.049302V895.535628z m73.049302-803.339907h803.56614v-72.94214H219.397953v72.94214z m0 0M803.804279 456.918326h73.049302v-583.549024h-73.049302V456.918326zM0.512 749.556093h584.132465v-72.94214H0.512v72.94214z m193.107349-631.581767L923.850419 848.205395l51.581023-51.581023-730.23107-730.219163-51.581023 51.569117z m0 0"  horiz-adv-x="1024" />

    
    <glyph glyph-name="dianbokai" unicode="&#58938;" d="M871.173953 488.078884L265.394605 873.567256C239.616 888.450977 213.944558 896 189.606698 896c-63.666605 0-106.924651-51.128558-106.924651-127.202233v-769.583627c0-76.085581 43.258047-127.21414 106.88893-127.21414 24.33786 0 49.985488 7.537116 76.91907 23.111442l603.743255 384.095256c45.853767 26.481116 71.084651 63.666605 71.084651 104.709953 0 41.102884-25.373767 78.336-70.144 104.162233z m-52.61693-152.587907L250.701395-25.83814c-15.026605-8.680186-29.719814-13.252465-42.019721-13.252465-37.483163 0-41.984 42.73414-41.984 61.106605V745.984c0 18.372465 4.500837 61.106605 42.019721 61.106605 12.311814 0 26.969302-4.584186 40.912372-12.609489l569.97507-362.638883C843.573581 418.006326 857.302326 400.538791 857.302326 383.928558c0-16.574512-13.764465-33.982512-38.745303-48.437581z"  horiz-adv-x="1024" />

    
    <glyph glyph-name="pingtai" unicode="&#58939;" d="M949.99814 895.88093H73.549395A73.037395 73.037395 0 0 1 0.512 822.843535v-876.448744a73.037395 73.037395 0 0 1 73.037395-73.037396h876.448745a73.037395 73.037395 0 0 1 73.037395 73.037396V822.855442A73.025488 73.025488 0 0 1 949.99814 895.88093zM73.549395 822.855442h876.448745v-219.112186H73.549395V822.855442z m876.448745-876.448744H73.549395V530.70586h876.448745v-584.299162z m0 0M219.624186 311.581767h584.287256a36.518698 36.518698 0 0 1 0 73.037396H219.624186a36.518698 36.518698 0 0 1 0-73.037396z m0-182.581581h584.287256a36.518698 36.518698 0 0 1 0 73.037395H219.624186a36.518698 36.518698 0 0 1 0-73.037395z m584.287256 620.817861h-73.037395a36.518698 36.518698 0 0 1 0-73.037396h73.037395a36.518698 36.518698 0 0 1 0 73.037396z m0 0"  horiz-adv-x="1024" />

    
    <glyph glyph-name="dianziditu" unicode="&#58940;" d="M511.595163-126.749767c-5.87014 0-11.740279 1.714605-16.824558 5.131907-16.50307 11.14493-404.20614 276.003721-412.874419 559.163534-3.929302 128.916837 37.685581 242.116465 120.355721 327.358512C282.945488 848.122047 395.704558 895.845209 511.595163 895.845209c115.914419 0 228.673488-47.723163 309.355163-130.941023 82.67014-85.242047 124.29693-198.453581 120.367627-327.358512-8.668279-283.159814-396.383256-548.018605-412.886325-559.163534-5.084279-3.417302-10.954419-5.131907-16.836465-5.131907z m0 962.452837c-99.709023 0-196.715163-41.067163-266.156651-112.663814-71.072744-73.311256-106.865116-171.377116-103.388279-283.636093 6.763163-221.386419 296.007442-445.701953 369.54493-499.211907 73.549395 53.509953 362.805581 277.825488 369.568744 499.211907 3.46493 112.258977-32.327442 210.324837-103.400186 283.636093-69.429581 71.596651-166.447628 112.663814-266.168558 112.663814z m0 0M512.166698 310.962605c-88.611721 0-160.684651 72.096744-160.684651 160.696558s72.07293 160.708465 160.684651 160.708465c88.623628 0 160.720372-72.096744 160.720372-160.708465s-72.096744-160.696558-160.720372-160.696558z m0 261.250976c-55.426977 0-100.542512-45.103628-100.542512-100.542511 0-55.438884 45.115535-100.542512 100.542512-100.542512 55.450791 0 100.578233 45.115535 100.578232 100.542512-0.011907 55.438884-45.127442 100.542512-100.578232 100.542511z m0 0"  horiz-adv-x="1024" />

    
    <glyph glyph-name="guanli" unicode="&#58941;" d="M681.055256 371.581023L543.565395 234.091163V544.244093c0 19.18214-12.788093 31.970233-31.970232 31.970233s-31.970233-12.788093-31.970233-31.970233v-306.96186L342.13507 371.581023c-12.788093 12.788093-31.970233 12.788093-44.770233 0-12.788093-12.788093-12.788093-31.970233 0-44.758325l188.65414-188.65414c6.394047-6.394047 15.979163-9.597023 25.576186-9.597023 9.585116 0 19.18214 3.202977 25.576186 9.597023l188.654139 188.65414c12.8 12.788093 12.8 31.970233 0 44.758325-12.788093 12.788093-31.98214 12.788093-44.770232 0z m57.570232 236.615442c-47.973209 95.922605-143.883907 159.86307-259.000558 159.86307-150.277953 0-274.979721-118.307721-287.767814-265.394605C79.943442 470.706605 0 374.784 0 256.476279c0-137.48986 111.913674-246.200558 255.797581-255.797581h543.565396c108.710698 47.961302 223.815442 179.057116 223.815442 303.758883 0.011907 163.066047-124.68986 294.16186-284.552931 303.758884z m60.749396-543.565395H255.797581S63.952372 83.813209 63.952372 256.476279c0 95.922605 86.337488 185.451163 191.845209 191.845209 0 131.095814 86.337488 255.797581 223.815442 255.797582 108.710698 0 182.260093-67.143442 207.836279-159.874977 159.874977 6.394047 265.394605-118.307721 271.776745-223.827349 3.214884-89.516651-73.525581-207.824372-159.851163-255.785674z m0 0"  horiz-adv-x="1024" />

    
    <glyph glyph-name="luxiang" unicode="&#58942;" d="M1009.842605 585.978047a32.363163 32.363163 0 0 1-32.267907 0l-161.291907-93.124466v97.530047c0 62.011535-50.44986 112.461395-112.461396 112.461395H114.426047c-62.011535 0-112.461395-50.44986-112.461396-112.461395v-426.210233c0-62.011535 50.44986-112.461395 112.461396-112.461395h589.395348c62.011535 0 112.461395 50.44986 112.461396 112.461395v97.530047l161.291907-93.124465a32.363163 32.363163 0 0 1 32.267907 0 32.339349 32.339349 0 0 1 16.122046 27.933767V558.044279c0 11.490233-6.179721 22.182698-16.122046 27.933768zM758.462512 164.173395a54.688744 54.688744 0 0 0-54.62921-54.641116H114.426047a54.700651 54.700651 0 0 0-54.62921 54.641116V590.383628a54.700651 54.700651 0 0 0 54.62921 54.641116h589.395348a54.700651 54.700651 0 0 0 54.62921-54.641116v-426.210233z m202.990139 88.206884l-145.16986 83.813209v82.146233l145.16986 83.813209v-249.772651zM173.937116 593.074605a60.749395 60.749395 0 1 1 0-121.498791 60.761302 60.761302 0 1 1 0 121.498791z"  horiz-adv-x="1025" />

    
    <glyph glyph-name="huanjingjiankong" unicode="&#58943;" d="M515.024372 849.979535c1.726512 0 3.19107-0.261953 4.524651-0.797768C555.460465 834.548093 807.007256 541.231628 801.815814 282.112c-4.250791-217.897674-201.132651-235.317581-263.513302-235.317581-11.835535 0-18.753488 0.666791-18.753489 0.66679S175.699349 76.716651 226.911256 374.950698C276.384744 662.40893 469.003907 849.836651 515.024372 849.979535m0 44.686884c-69.834419 0-163.351814-124.106419-181.438512-148.992-54.141023-74.621023-124.630326-198.203535-153.099907-363.412838-16.62214-96.446512 1.988465-178.378419 55.200745-243.831069 96.577488-118.653023 272.157767-134.882233 279.611535-135.549024 1.333581-0.130977 9.716093-0.797767 23.016186-0.797767 147.527442 0 306.485581 73.299349 310.605395 279.218605 2.929116 148.587163-70.370233 298.900837-132.226977 398.800372C661.754047 768.559628 577.952744 874.055442 538.183442 890.272744a61.523349 61.523349 0 0 1-23.15907 4.393675z m0 0M519.56093-126.404465c-13.03814 0-23.540093 9.978047-23.540093 22.337488V849.181767c0 12.371349 10.501953 22.337488 23.540093 22.337489 13.03814 0 23.540093-9.978047 23.540093-22.337489v-953.236837c0-12.371349-10.501953-22.349395-23.540093-22.349395z m0 0M519.56093 484.566326a23.754419 23.754419 0 0 0-18.896372 9.049302 21.670698 21.670698 0 0 0 4.786605 31.267721l173.198884 122.64186c10.370977 7.322791 25.135628 5.322419 32.851348-4.655628a21.658791 21.658791 0 0 0-4.786604-31.255814L533.515907 488.948093a24.075907 24.075907 0 0 0-13.954977-4.381767z m0-312.069954a23.849674 23.849674 0 0 0-18.622511 8.644465c-7.977674 9.716093-6.120186 23.813953 4.119814 31.398698l269.895441 200.192c10.24 7.584744 25.004651 5.858233 32.994233-3.857861 7.977674-9.716093 6.120186-23.813953-4.119814-31.38679L534.051721 177.282977a24.587907 24.587907 0 0 0-14.490791-4.786605z m0 130.226605c-5.596279 0-11.311628 1.869395-15.836279 5.858232L257.238326 521.680372a21.670698 21.670698 0 0 0-1.595535 31.660651c8.775442 9.180279 23.540093 9.84707 33.256186 1.595535l246.617302-213.099163c9.585116-8.251535 10.382884-22.480372 1.595535-31.660651a24.445023 24.445023 0 0 0-17.550884-7.453767z m0 0"  horiz-adv-x="1024" />

    
    <glyph glyph-name="shipinhuichuan" unicode="&#58944;" d="M271.99107 871.566884c-83.456 0-151.099535-67.655442-151.099535-151.111442v-362.662698c0-83.456 67.655442-151.123349 151.099535-151.123349 83.467907 0 151.111442 67.667349 151.111442 151.123349V720.455442c0 83.456-67.643535 151.111442-151.111442 151.111442z m90.671628-513.77414c0-49.997395-40.68614-90.671628-90.671628-90.671628s-90.659721 40.68614-90.659721 90.671628V720.455442c0 49.985488 40.674233 90.659721 90.659721 90.659721 49.997395 0 90.671628-40.68614 90.671628-90.659721v-362.662698zM271.99107 144.360186c59.249116 0 112.675721 24.599814 151.111442 63.952372v-76.466605a271.419535 271.419535 0 0 0-132.429396-46.056186h11.537861v-120.879627h120.891535v-60.439814H120.891535v60.439814h120.879628V85.789767h11.549767C112.175628 95.577302 0 212.301395 0 355.911442v92.55293h60.439814v-92.55293c0-116.652651 94.910512-211.551256 211.551256-211.551256zM719.931535-103.566884c-167.674047 0-304.080372 134.870326-304.080372 300.639256 0 165.76893 136.406326 300.639256 304.080372 300.639256C887.593674 497.711628 1024 362.841302 1024 197.072372c0-165.76893-136.406326-300.639256-304.068465-300.639256z m0 541.803163c-134.882233 0-244.605023-108.186791-244.605023-241.163907 0-132.977116 109.722791-241.163907 244.605023-241.163907 134.858419 0 244.581209 108.186791 244.581209 241.163907 0.011907 132.977116-109.722791 241.163907-244.581209 241.163907zM618.37693 55.034047a24.778419 24.778419 0 0 0-24.790325 24.790325V314.332279a24.802233 24.802233 0 0 0 37.173581 21.468279l203.097302-117.259907a24.790326 24.790326 0 0 0 0-42.936558L630.760186 58.344186a24.81414 24.81414 0 0 0-12.383256-3.310139z m24.778419 216.373581v-148.658605l128.738232 74.335256-128.738232 74.323349z"  horiz-adv-x="1024" />

    
    <glyph glyph-name="zanting" unicode="&#58945;" d="M259.774512 896h-63.761861c-21.849302 0-39.566884-26.457302-39.566884-59.082419v-905.823255c0-32.625116 17.717581-59.082419 39.566884-59.082419h63.761861c21.849302 0 39.566884 26.457302 39.566883 59.082419V836.917581C299.341395 869.542698 281.623814 896 259.774512 896z m568.20093 0h-63.761861c-21.849302 0-39.566884-26.457302-39.566883-59.082419v-905.823255c0-32.625116 17.717581-59.082419 39.566883-59.082419h63.761861c21.849302 0 39.566884 26.457302 39.566884 59.082419V836.917581C867.542326 869.542698 849.824744 896 827.975442 896z m15.741023 0"  horiz-adv-x="1024" />

    
    <glyph glyph-name="shengyinguan" unicode="&#58946;" d="M553.948279 840.846884a48.580465 48.580465 0 0 1-30.684279-11.121117L258.714791 601.183256H73.013581c-40.20986 0-72.489674-32.279814-72.489674-71.953861L0 216.004465c0-39.685953 32.803721-72.477767 73.013581-72.477767H261.35814l260.834232-205.288186a46.734884 46.734884 0 0 1 30.684279-11.097303c25.373767 0 48.663814 19.57507 48.663814 48.128l1.047814 817.413954c0.559628 28.600558-23.242419 48.163721-48.64 48.163721z m-24.349767-816.354233L305.806884 200.668279a71.930047 71.930047 0 0 1-44.436837 15.336186H71.95386l1.059721 312.689116 185.70121 0.512c17.467535 0 33.863442 6.370233 47.092093 17.467535l224.851349 194.16707-1.059721-716.347535z m0 0M1012.950326 271.431442c14.57414-14.57414 14.764651-38.018977 0.416744-52.366884-14.347907-14.347907-37.792744-14.169302-52.366884 0.404837L683.901023 496.568558c-14.57414 14.57414-14.764651 38.018977-0.416744 52.366884 14.347907 14.347907 37.792744 14.157395 52.366884-0.416744l277.099163-277.087256z m0 0M960.988279 548.518698c14.57414 14.57414 38.018977 14.764651 52.366884 0.416744 14.347907-14.347907 14.157395-37.792744-0.416744-52.366884L735.851163 219.481302c-14.57414-14.57414-38.018977-14.764651-52.366884-0.404837-14.347907 14.347907-14.169302 37.792744 0.404837 52.366884l277.099163 277.075349z m0 0"  horiz-adv-x="1024" />

    
    <glyph glyph-name="shengyinkai" unicode="&#58947;" d="M536.873674 826.772837c-10.251907 0-21.039628-3.584-29.743627-10.775814L250.749023 594.479628H70.763163c-38.971535 0-70.251163-31.279628-70.251163-69.739163L0 221.184c0-38.459535 31.791628-70.239256 70.763163-70.239256h182.54586l252.797024-198.953674a45.353674 45.353674 0 0 1 29.743627-10.763907c24.587907 0 47.163535 18.967814 47.163535 46.651535l1.024 792.21879c0.523907 27.707535-22.551814 46.675349-47.163535 46.675349z m-23.599627-791.19479l-216.885582 170.746046a69.774884 69.774884 0 0 1-43.067535 14.859907H69.739163l1.035907 303.056372 179.973953 0.500093c16.931721 0 32.815628 6.167814 45.639442 16.931721l217.921488 188.189767-1.035906-694.283906z m207.169488 578.393302c-15.907721 10.752-37.959442 6.144-48.211349-9.751814-10.752-15.883907-6.144-37.935628 9.751814-48.199442 54.343442-36.411535 87.170977-96.398884 87.170977-160.49414 0-62.035349-30.767628-120.498605-82.03907-156.898232a34.685023 34.685023 0 0 1-8.215814-48.711442c6.667907-9.751814 17.419907-14.883721 28.719628-14.883721 7.168 0 14.336 2.059907 19.991814 6.667907 69.75107 49.735442 111.270698 129.738419 111.270698 214.349395 0 87.170977-44.091535 168.68614-118.438698 217.921489z m0 0M868.62586 741.637953c-14.359814 12.823814-36.411535 11.799814-49.235348-2.56-12.811907-14.359814-11.776-36.399628 2.56-49.211534 84.110884-75.394977 132.298419-182.557767 132.298418-294.340466 0-109.222698-44.079628-210.741581-124.082604-286.124651-13.835907-13.323907-14.859907-35.375628-1.536-49.211535 6.667907-7.191814 15.895814-10.775814 25.635721-10.775814a33.696744 33.696744 0 0 1 24.09972 9.751814C972.204651 148.384744 1024 267.859349 1024 396.04986c0.500093 130.750512-55.903256 256.881116-155.37414 345.588093z m0 0"  horiz-adv-x="1024" />

    
    <glyph glyph-name="yuntai" unicode="&#58948;" d="M675.316093 105.543442L512.988279-56.784372 350.660465 105.626791c-11.14493 11.133023-30.48186 11.14493-41.650605-0.011907a29.148279 29.148279 0 0 1-8.656372-20.706233c0-7.370419 3.024372-14.693209 8.870698-21.015814l183.057861-183.069767c5.501023-5.477209 13.085767-8.608744 20.813395-8.608744 7.739535 0 15.324279 3.143442 20.825302 8.632558l183.02214 183.034046c5.596279 5.560558 8.668279 12.966698 8.668279 20.861023 0 7.79907-3.167256 15.395721-8.632558 20.801489-11.156837 11.180651-30.553302 11.168744-41.662512 0zM533.980279 887.498419c-10.954419 11.061581-30.850977 11.037767-41.698232 0.047628L308.843163 704.11907c-5.477209-5.953488-8.489674-13.276279-8.489675-20.610977 0-7.763349 3.072-15.12186 8.656372-20.706233 5.584372-5.572465 12.978605-8.644465 20.825303-8.644465 7.858605 0 15.252837 3.072 20.825302 8.644465L512.988279 825.177302l162.304-162.292093c11.14493-11.204465 30.577116-11.14493 41.638698-0.059535 5.596279 5.560558 8.692093 12.954791 8.692093 20.861024 0 7.894326-3.083907 15.300465-8.644465 20.837209L533.980279 887.498419zM241.997395 550.661953a29.291163 29.291163 0 0 1-8.608744 20.789582 29.136372 29.136372 0 0 1-20.87293 8.704c-7.787163 0-15.395721-3.179163-20.825302-8.668279L8.692093 388.477023A29.553116 29.553116 0 0 1 0 367.616c0-7.763349 3.155349-15.36 8.656372-20.849116L192.059535 163.411349c5.941581-5.501023 13.276279-8.537302 20.622884-8.537302a29.505488 29.505488 0 0 1 20.706232 50.33079L71.025116 367.49693l162.315907 162.327814a29.231628 29.231628 0 0 1 8.656372 20.837209zM1015.343628 388.429395l-182.998326 183.010233a29.565023 29.565023 0 0 1-20.87293 8.704c-7.894326 0-15.312372-3.095814-20.813395-8.656372a29.279256 29.279256 0 0 1-8.656372-20.837209c0-7.858605 3.083907-15.252837 8.656372-20.825303l162.315907-162.327814-162.387349-162.315907a29.505488 29.505488 0 0 1 20.741953-50.306976c7.346605 0 14.669395 3.036279 20.980093 8.882604l183.034047 182.998326c5.501023 5.501023 8.656372 13.097674 8.656372 20.861023 0 7.787163-3.167256 15.383814-8.656372 20.813395zM512 194.821953c104.424186 0 189.368558 84.956279 189.368558 189.392373 0 104.412279-84.956279 189.368558-189.368558 189.368558-104.424186 0-189.380465-84.956279-189.380465-189.368558 0-104.424186 84.956279-189.392372 189.380465-189.392373z"  horiz-adv-x="1024" />

    
    <glyph glyph-name="wenjian" unicode="&#58949;" d="M963.762605 745.400558H470.373209l-43.591442 87.111442a60.070698 60.070698 0 0 1-53.879069 33.351442H60.237395C27.028837 865.875349 0 838.941767 0 805.816558v-750.996837c0-82.82493 60.02307-150.206512 143.062326-150.206512 5.084279 0 7.537116 0.261953 7.537116 0.738233v-3.226791h722.82493C956.416-97.875349 1024-30.493767 1024 52.319256V685.639442c0 33.149023-27.052651 59.761116-60.237395 59.761116z m0-693.081302c0-49.675907-40.531349-89.969116-90.35014-89.969116H269.050047c20.122791 30.124651 32.113116 57.558326 32.113116 92.469581V353.875349h662.599442v-301.556093zM240.937674 414.112744v-359.293023c0-49.711628-40.531349-90.112-90.350139-90.112s-90.362047 40.412279-90.362047 90.112V805.637953h312.67721l43.591442-87.111441a60.094512 60.094512 0 0 1 53.879069-33.351442h493.389396v-271.062326H240.937674z m0 0"  horiz-adv-x="1024" />

    
    <glyph glyph-name="wodexiangmu" unicode="&#58950;" d="M512.309581 348.576744a36.673488 36.673488 0 0 0-14.943255 3.393489L22.051721 591.669581a33.268093 33.268093 0 0 0 0 60.439814L497.378233 891.808744a33.268093 33.268093 0 0 0 29.886511 0l475.326512-239.699349a33.970605 33.970605 0 0 0 19.015442-28.517209 34.613581 34.613581 0 0 0-18.336745-30.553302L527.931535 351.970233c-4.953302-2.083721-10.24-3.238698-15.621954-3.393489zM112.36614 623.592186l399.955348-203.716465 399.955349 203.716465L512.309581 827.296744 112.36614 623.592186z m0 0M512.309581 112.949581a28.410047 28.410047 0 0 0-14.943255 0L22.051721 351.970233a34.018233 34.018233 0 0 0 29.886512 61.118511l460.383255-228.840186 460.395163 232.233675a34.006326 34.006326 0 0 0 29.886512-61.118512l-475.326512-239.020651c-4.596093-2.464744-9.763721-3.643535-14.96707-3.393489z m0 0M512.309581-126.749767a36.864 36.864 0 0 0-14.943255 3.393488L22.051721 116.34307a33.958698 33.958698 0 1 0 30.565209 60.439814l459.704558-232.233675L972.704744 176.104186a33.268093 33.268093 0 0 0 45.496558-14.943256 33.958698 33.958698 0 0 0-14.931349-45.496558L527.931535-123.356279c-4.953302-2.083721-10.24-3.238698-15.621954-3.393488z m0 0"  horiz-adv-x="1024" />

    
    <glyph glyph-name="quanping" unicode="&#58951;" d="M765.761488 311.593674a33.51814 33.51814 0 0 0 19.896559-5.405767c8.763535-5.620093 14.645581-14.717023 17.062697-24.802233a43.960558 43.960558 0 0 0-3.643535-30.672372l-109.556093-137.894697c-10.12093-19.432186-32.458419-26.076279-49.914046-14.871814-17.455628 11.216372-23.444837 36.042419-13.371535 55.474604l62.082977 78.145489H259.691163a40.031256 40.031256 0 0 0 0 80.050604h504.248558l1.857488-0.035721h-0.035721zM257.786047 457.704186a33.494326 33.494326 0 0 0-19.908466 5.405767 40.221767 40.221767 0 0 0-17.05079 24.802233 44.032 44.032 0 0 0 3.655442 30.672372l109.591814 137.894698c10.073302 19.432186 32.422698 26.076279 49.878325 14.859907 17.455628-11.216372 23.444837-36.042419 13.359628-55.474605l-62.082977-78.145488h428.651163a40.019349 40.019349 0 0 0 0-80.050605H259.643535l-1.821768 0.035721h-0.03572zM0.512 823.248372c0 40.138419 32.863256 72.680186 72.704 72.680186h877.139349c40.138419 0 72.680186-32.863256 72.680186-72.704v-877.139349c0-40.17414-32.863256-72.704-72.704-72.704H73.180279C33.04186-126.58307 0.512-93.719814 0.512-53.87907V823.248372z m73.037395-36.887814v-803.328a36.554419 36.554419 0 0 1 36.518698-36.590139h803.411349a36.518698 36.518698 0 0 1 36.518698 36.518697V786.360558a36.518698 36.518698 0 0 1-36.518698 36.518698H110.068093a36.506791 36.506791 0 0 1-36.518698-36.518698z m0 0"  horiz-adv-x="1024" />

    
    <glyph glyph-name="wodedaiban" unicode="&#58952;" d="M58.915721-14.336V825.605953c0 4.619907 3.619721 8.477767 8.108651 8.477768h675.744744c4.48893 0 8.108651-3.738791 8.108651-8.477768v-338.872558h58.641861V825.605953c0 38.423814-29.946047 69.739163-66.750512 69.739163H67.155349C30.350884 895.345116 0.404837 864.029767 0.404837 825.605953v-839.941953c0-38.423814 29.946047-69.739163 66.619535-69.739163H445.32093v61.380465H67.024372a8.227721 8.227721 0 0 0-8.108651 8.358698z m796.017116 160.208372H794.552558v96.446512c0 16.467349-13.597767 29.81507-30.315163 29.815069s-30.315163-13.347721-30.315162-29.815069v-126.273489c0-16.467349 13.597767-29.81507 30.315162-29.815069h90.707349c16.717395 0 30.315163 13.347721 30.315163 29.815069 0 16.479256-13.597767 29.826977-30.32707 29.826977z m0 0M255.928558 293.340279c0-16.467349 13.597767-29.81507 30.315163-29.81507h121.022512c16.717395 0 30.315163 13.347721 30.315162 29.81507s-13.597767 29.81507-30.315162 29.81507H286.243721c-16.717395 0-30.315163-13.347721-30.315163-29.81507z m378.665675 346.481116H286.243721c-16.717395 0-30.315163-13.347721-30.315163-29.815069 0-16.598326 13.597767-29.826977 30.315163-29.826977h348.350512c16.717395 0 30.196093 13.359628 30.196093 29.826977 0.130977 16.467349-13.478698 29.81507-30.196093 29.815069z m30.327069-185.153488c0 16.467349-13.478698 29.81507-30.196093 29.81507H286.243721c-16.717395 0-30.315163-13.347721-30.315163-29.81507s13.597767-29.826977 30.315163-29.826977h348.350512c16.717395 0 30.32707 13.359628 30.327069 29.826977z m102.054698-70.370233c-141.109581 0-255.523721-114.283163-255.523721-255.523721 0-141.121488 114.41414-255.523721 255.523721-255.52372 141.121488 0 255.523721 114.41414 255.523721 255.52372 0 141.240558-114.41414 255.523721-255.523721 255.523721z m0-446.047255c-105.174326 0.130977-190.392558 85.349209-190.523535 190.523534 0.130977 105.174326 85.349209 190.392558 190.523535 190.523535 105.186233-0.130977 190.404465-85.349209 190.523535-190.523535-0.130977-105.174326-85.349209-190.392558-190.523535-190.523534z m0 0"  horiz-adv-x="1024" />

    
    <glyph glyph-name="ziyuan" unicode="&#58953;" d="M991.304156 702.428279H376.154017a32.863256 32.863256 0 0 0-32.863256 32.863256 33.51814 33.51814 0 0 0 32.863256 32.863256h615.138232A32.851349 32.851349 0 0 0 1024.143598 735.291535a32.839442 32.839442 0 0 0-32.839442-32.863256z m0-350.279442H376.154017a32.863256 32.863256 0 0 0-32.863256 32.863256 33.51814 33.51814 0 0 0 32.863256 32.863256h615.138232a32.863256 32.863256 0 0 0 0.011907-65.726512z m0-350.946232H376.154017a33.51814 33.51814 0 0 0-32.863256 32.851348 32.863256 32.863256 0 0 0 32.863256 32.863256h615.138232a32.863256 32.863256 0 0 0 0.011907-65.714604zM104.079598 640.654884a33.482419 33.482419 0 0 0-23.659163 9.858976L9.442947 720.836465a33.530047 33.530047 0 0 0 0 46.663442 32.88707 32.88707 0 0 0 46.651535 0l47.985116-47.318326 99.899535 99.887628a32.827535 32.827535 0 0 0 46.651535 0 33.530047 33.530047 0 0 0 0-46.663442L127.083877 650.51386a32.863256 32.863256 0 0 0-23.004279-9.858976z m0-343.718698a33.530047 33.530047 0 0 0-23.659163 9.858977L9.442947 377.772651a32.863256 32.863256 0 0 0 0 46.008558 32.839442 32.839442 0 0 0 46.651535 0l47.985116-47.318325 99.899535 99.899535a32.863256 32.863256 0 0 0 46.651535 0 32.863256 32.863256 0 0 0 0-46.008559L127.083877 306.795163c-6.072558-6.191628-14.336-9.728-23.004279-9.858977z m0-357.518884a33.51814 33.51814 0 0 0-23.659163 7.227535L9.442947 20.253767a33.530047 33.530047 0 0 0 0 46.663442 33.506233 33.506233 0 0 0 46.663442 0l47.985116-47.973209 99.899535 100.554419a33.00614 33.00614 0 0 0 46.663442-46.663442L127.083877-53.343256a32.922791 32.922791 0 0 0-23.004279-7.239442z m0 0"  horiz-adv-x="1024" />

    
    <glyph glyph-name="shipinjiankong" unicode="&#58954;" d="M277.694512 198.060651l-70.77507-74.787721H61.32093V289.220465c0 17.92-13.740651 32.458419-30.660465 32.458419-16.919814 0-30.660465-14.538419-30.660465-32.458419v-310.200558c0-17.92 13.740651-32.458419 30.660465-32.458419 16.919814 0 30.660465 14.538419 30.660465 32.458419v79.336186h161.291907c0.250047 0 0.619163 0.130977 0.857303 0.130977 0.250047 0 0.369116 0 0.607255 0.130977 0.369116 0 0.607256 0.130977 0.976372 0.130976 0.11907 0 0.369116 0 0.488186 0.130977 0.369116 0.130977 0.607256 0.130977 0.98828 0.261953 0.11907 0 0.369116 0.130977 0.488186 0.130977 0.369116 0.130977 0.619163 0.130977 0.988279 0.261954 0.130977 0 0.369116 0.130977 0.488186 0.130976a2.214698 2.214698 0 0 0 0.857302 0.261954c0.250047 0.130977 0.369116 0.130977 0.607256 0.261953 0.250047 0.130977 0.488186 0.261953 0.738232 0.261954 0.250047 0.130977 0.488186 0.130977 0.607256 0.261953 0.250047 0.130977 0.488186 0.261953 0.619163 0.261954l0.738233 0.39293c0.250047 0.130977 0.369116 0.261953 0.607255 0.261954l0.738233 0.39293c0.11907 0.130977 0.369116 0.130977 0.488186 0.261953 0.250047 0.130977 0.607256 0.381023 0.857302 0.523907 0.130977 0.130977 0.250047 0.130977 0.369117 0.261954 0.250047 0.130977 0.607256 0.39293 0.857302 0.523907 0.11907 0.130977 0.250047 0.261953 0.369116 0.261953 0.250047 0.261953 0.488186 0.381023 0.857303 0.642977a1.750326 1.750326 0 0 0 0.488186 0.39293c0.250047 0.261953 0.488186 0.39293 0.738232 0.642977 0.23814 0.130977 0.369116 0.381023 0.607256 0.523907 0.250047 0.130977 0.369116 0.381023 0.607256 0.523907 0.369116 0.261953 0.619163 0.642977 0.976372 0.90493l79.848186 84.527628c12.01414 12.728558 12.01414 33.244279 0 45.96093-11.978419 12.811907-31.362977 12.811907-43.377116 0.083349z m710.786976 195.548279L450.143256 758.986419c-0.488186 0.523907-1.107349 0.90493-1.714605 1.29786a52.164465 52.164465 0 0 1-3.441116 2.202791l-80.205395 54.402977a29.255442 29.255442 0 0 1-16.562605 5.191441h-83.170233c-10.299535 0-19.860837-5.453395-25.516651-14.550325L73.954233 544.089302c-0.11907-0.130977-0.250047-0.261953-0.250047-0.523907-20.36093-33.756279-11.156837-78.681302 20.730047-100.363907l497.854511-337.848558a119.403163 119.403163 0 0 1 67.214884-20.896744 118.569674 118.569674 0 0 1 60.844651 16.884093l264.322977 156.588651c23.182884 13.764465 37.411721 38.697674 38.269023 66.738605 0.75014 28.04093-12.133209 53.87907-34.458791 68.941395z m-863.255814 114.783256L281.492837 757.045581h57.772651l48.568559-32.982325-181.283721-279.682977-78.990884 53.48614a8.061023 8.061023 0 0 0-2.333768 10.525767zM961.619349 326.608372c-0.11907-2.988651-1.107349-8.561116-6.870326-11.942698L690.426047 157.946047a60.154047 60.154047 0 0 0-65.000187 2.071813L258.178977 409.314233l181.295628 279.802046 516.012651-350.184186c5.524837-3.750698 6.26307-9.33507 6.132093-12.323721z m0 0"  horiz-adv-x="1024" />

    
    <glyph glyph-name="xiazai" unicode="&#58955;" d="M987.100279-53.557581H36.947349a36.923535 36.923535 0 1 1 0-73.870884H987.112186a36.935442 36.935442 0 0 1-0.011907 73.870884z m-502.772093 78.943255a37.864186 37.864186 0 0 1 26.933581-11.275907c10.537674 0 20.015628 4.310326 26.838326 11.311628l458.882977 458.882977c6.906047 6.858419 11.240186 16.348279 11.275907 26.814512a37.923721 37.923721 0 0 1-37.864186 37.828465 37.483163 37.483163 0 0 1-26.778791-11.121116L549.090233 143.324279V857.492837c-0.047628 0.035721-0.047628 0.035721-0.047628 0.071442a37.780837 37.780837 0 0 1-37.757024 37.864186 37.840372 37.840372 0 0 1-37.828465-37.864186s0-0.035721 0.035721-0.071442V143.36L79.002791 537.850047a37.888 37.888 0 0 1-64.678698-26.671628c0-10.501953 4.298419-20.075163 11.192558-26.850233l458.811535-458.942512z m0 0"  horiz-adv-x="1024" />

    
    <glyph glyph-name="youshouqi" unicode="&#58884;" d="M489.792 42.176a32 32 0 1 1 40.704-49.408L993.92 374.336 531.072 774.72a32 32 0 1 1-41.856-48.384l405.44-350.72-404.864-333.44zM41.792 42.176a32 32 0 1 1 40.704-49.408L545.92 374.336 83.072 774.72a32 32 0 1 1-41.856-48.384l405.44-350.72-404.864-333.44z"  horiz-adv-x="1024" />

    
    <glyph glyph-name="zuoshouqi" unicode="&#58885;" d="M176 382.3l392.73 395.44a32 32 0 0 1-45.41 45.1L108 404.7a32 32 0 0 1 0.16-45.25L523.48-53a32 32 0 1 1 45.1 45.41zM525.23 382.3L918 777.74a32 32 0 1 1-45.41 45.1L457.27 404.7a32 32 0 0 1 0.16-45.25L872.7-53a32 32 0 0 1 45.1 45.41z"  horiz-adv-x="1024" />

    


  </font>
</defs>
</svg>
